<?xml version="1.0" encoding="utf-8"?>
<!-- Svg Vector Icons : http://www.onlinewebfonts.com/icon -->
<!DOCTYPE svg PUBLIC "-//W3C//DTD SVG 1.1//EN" "http://www.w3.org/Graphics/SVG/1.1/DTD/svg11.dtd">
<svg version="1.1" xmlns="http://www.w3.org/2000/svg" xmlns:xlink="http://www.w3.org/1999/xlink" x="0px" y="0px" viewBox="0 0 1000 1000" enable-background="new 0 0 1000 1000" xml:space="preserve">
<metadata> Svg Vector Icons : http://www.onlinewebfonts.com/icon </metadata>
<g><g transform="translate(0.000000,511.000000) scale(0.100000,-0.100000)"><path d="M5304.6,4462.1c-30.7-19.2-636.2-620.9-1347.2-1333.8L2667.7,1829l185.9-115c212.7-130.3,450.3-312.4,630.5-479.1l122.7-116.9l891.1,891.1l889.2,889.2l1786.1-1786C8778.9-491.7,8972.5-679.5,9076-727.5c295.1-138,645.8-7.7,780,289.4c59.4,136.1,59.4,346.9-3.8,481c-36.4,78.6-438.9,492.5-2221.1,2276.6C5902.5,4050,5444.5,4498.5,5406.1,4498.5C5379.3,4498.5,5333.3,4481.2,5304.6,4462.1z"/><path d="M7406.8,4483.1c-59.4-38.3-65.2-103.5-65.2-735.9v-638.1l507.8-507.8l507.8-507.8v1170.9c0,1109.6-1.9,1172.8-34.5,1201.6c-30.7,28.7-92,32.6-465.7,32.6C7621.4,4498.5,7418.3,4490.8,7406.8,4483.1z"/><path d="M4614.7,1666.1c-429.3-429.3-780-785.7-780-793.4c0-7.7,49.8-80.5,113.1-162.9c199.3-266.4,369.8-571.1,492.5-887.3c38.3-97.7,72.8-161,88.1-159.1c13.4,1.9,61.3,13.4,107.3,24.9c120.7,28.8,226.1-3.8,318.1-103.5c253-270.2,435-630.5,521.3-1027.2c26.8-122.7,36.4-237.6,34.5-469.5c-1.9-337.3-36.4-517.4-159.1-824c-235.7-584.5-726.3-1101.9-1349.1-1418.1l-245.3-124.6h2531.5c2504.7,0,2529.6,0,2567.9,38.3c38.3,38.3,38.3,63.2,38.3,1615.5v1575.3L7144.3,700.2L5396.6,2448L4614.7,1666.1z"/><path d="M1355,1890.3c-53.7-42.2-67.1-122.6-24.9-174.4c11.5-15.3,76.7-65.2,141.8-109.2c318.1-210.8,603.7-613.2,686-965.8c36.4-155.2,36.4-505.9,0-663.1c-17.2-67.1-57.5-180.1-90.1-249.1l-61.3-126.5L1966.3-187c-51.7,262.5-134.1,459.9-260.6,628.6c-168.6,224.2-302.8,287.5-385.2,184c-32.6-38.3-36.4-59.4-21.1-151.4c7.7-57.5,13.4-184,11.5-277.9c-5.7-295.1-86.2-442.7-521.2-948.6C283.7-1340.7,136.2-1632,103.6-2105.3C51.8-2891,563.5-3602,1470-3998.7c113.1-49.8,226.1-88.2,252.9-84.3c26.8,3.8,65.2,28.8,86.2,57.5l38.3,49.8l-69,170.6c-88.1,220.4-115,369.9-90.1,502.1c17.3,88.1,82.4,231.9,107.3,231.9c3.8,0,1.9-38.3-3.8-84.3c-15.3-99.6,28.7-203.1,103.5-252.9c69-46,230-44.1,312.4,3.8c161,95.8,176.3,214.6,69,574.9c-92,306.6-116.9,475.3-101.6,688c15.3,228,69,417.8,180.1,642l90.1,182.1l11.5-201.2c23-369.8,130.3-592.2,559.6-1165.1c239.5-321.9,314.3-446.5,329.6-548.1c23-151.4-59.4-352.6-260.6-642c-116.9-168.6-128.4-214.6-69-287.5c80.5-95.8,780,139.9,1153.7,392.9c396.7,266.4,680.3,582.6,879.6,979.3c325.8,649.6,283.6,1364.4-115,2000.7c-111.1,180.1-159.1,228.1-228.1,228.1c-113.1,0-126.5-30.7-113.1-276c9.6-168.6,5.7-247.2-19.2-367.9c-34.5-157.1-134.1-383.3-205.1-467.6l-40.3-47.9l13.4,67.1C4442.2-1083.9,4369.4-585.6,4103-28c-184,387.1-440.8,732.1-791.4,1069.3c-509.7,488.7-1059.7,774.2-1671.1,860.4C1399,1936.3,1414.4,1938.2,1355,1890.3z"/></g></g>
</svg>